<svg width="197" height="44" viewBox="0 0 197 44" fill="none" xmlns="http://www.w3.org/2000/svg">
<path fill-rule="evenodd" clip-rule="evenodd" d="M21.6394 43.8489C33.5905 43.8489 43.2786 34.2188 43.2786 22.3396C43.2786 10.4602 33.5905 0.830078 21.6394 0.830078C9.68828 0.830078 0 10.4602 0 22.3396C0 34.2188 9.68828 43.8489 21.6394 43.8489Z" fill="#B72E2E"/>
<path d="M24.985 34.4072C24.817 34.029 24.67 33.6439 24.544 33.2519C24.418 32.8458 24.3201 32.4397 24.25 32.0336C23.5221 32.8738 22.633 33.5529 21.583 34.0711C20.547 34.5892 19.357 34.8483 18.013 34.8483C15.787 34.8483 14.0161 34.2461 12.7001 33.0418C11.3981 31.8235 10.7471 30.1711 10.7471 28.0846C10.7471 25.956 11.6011 24.3106 13.3091 23.1483C15.0171 21.986 17.523 21.4049 20.827 21.4049H23.956V19.1783C23.956 18.086 23.6411 17.2389 23.011 16.6367C22.381 16.0345 21.45 15.7335 20.2181 15.7335C19.518 15.7335 18.895 15.8174 18.349 15.9855C17.803 16.1395 17.362 16.3286 17.026 16.5526L16.6271 18.9892H12.0071L12.0281 13.948C13.1481 13.1918 14.4291 12.5546 15.871 12.0365C17.327 11.5184 18.9091 11.2593 20.6171 11.2593C23.431 11.2593 25.713 11.9525 27.463 13.3388C29.227 14.7112 30.109 16.6717 30.109 19.2203V28.6097C30.109 28.9598 30.109 29.2889 30.109 29.5969C30.123 29.905 30.151 30.1991 30.193 30.4792L32.062 30.7312V34.4072H24.985ZM19.6721 30.3111C20.596 30.3111 21.436 30.1151 22.192 29.723C22.9481 29.3169 23.536 28.8128 23.956 28.2106V24.7447H20.827C19.5251 24.7447 18.5381 25.0528 17.866 25.669C17.194 26.2711 16.858 26.9993 16.858 27.8535C16.858 28.6237 17.103 29.2259 17.593 29.6599C18.097 30.0941 18.7901 30.3111 19.6721 30.3111Z" fill="#333333"/>
<path d="M67.813 32.2737C67.6785 31.9712 67.561 31.6631 67.4601 31.3494C67.3594 31.0246 67.281 30.6997 67.225 30.3748C66.6425 31.0469 65.9314 31.5903 65.0914 32.0048C64.2626 32.4193 63.3106 32.6266 62.2354 32.6266C60.4546 32.6266 59.0378 32.1448 57.985 31.1814C56.9434 30.2068 56.4226 28.8848 56.4226 27.2156C56.4226 25.5128 57.1058 24.1964 58.4722 23.2666C59.8386 22.3368 61.8434 21.8719 64.4866 21.8719H66.9898V20.0906C66.9898 19.2168 66.7378 18.539 66.2338 18.0573C65.7297 17.5756 64.9849 17.3348 63.9994 17.3348C63.4394 17.3348 62.941 17.4019 62.5042 17.5364C62.0674 17.6596 61.7146 17.8109 61.4458 17.9901L61.1266 19.9394H57.4306L57.4474 15.9064C58.3434 15.3014 59.3682 14.7917 60.5218 14.3772C61.6866 13.9627 62.9522 13.7555 64.3186 13.7555C66.5697 13.7555 68.3954 14.31 69.7954 15.419C71.2066 16.5169 71.9121 18.0853 71.9121 20.1242V27.6357C71.9121 27.9158 71.9121 28.1791 71.9121 28.4255C71.9234 28.672 71.9458 28.9072 71.9794 29.1313L73.4745 29.333V32.2737H67.813ZM63.5626 28.9969C64.3018 28.9969 64.9737 28.8401 65.5786 28.5264C66.1834 28.2015 66.6537 27.7981 66.9898 27.3164V24.5437H64.4866C63.445 24.5437 62.6554 24.7902 62.1178 25.2832C61.5802 25.7649 61.3114 26.3474 61.3114 27.0308C61.3114 27.6469 61.5074 28.1286 61.8994 28.476C62.3026 28.8233 62.857 28.9969 63.5626 28.9969ZM74.7849 17.0491V14.0915H81.9081L82.1433 16.2089C82.6809 15.4246 83.3249 14.8197 84.0753 14.394C84.8257 13.9683 85.6993 13.7555 86.6961 13.7555C88.9473 13.7555 90.6944 14.6348 91.9377 16.3937C93.1808 18.1526 93.8024 20.4659 93.8024 23.3339V23.6867C93.8024 26.3755 93.1808 28.5376 91.9377 30.1732C90.6944 31.8088 88.9585 32.6266 86.7297 32.6266C85.7777 32.6266 84.932 32.4529 84.1929 32.1057C83.4537 31.7472 82.8209 31.2263 82.2945 30.5428V35.8026L84.6632 36.3067V39.2642H75.037V36.3067L77.4057 35.8026V17.5532L74.7849 17.0491ZM88.8969 23.3339C88.8969 21.6198 88.6113 20.2307 88.0401 19.1664C87.4689 18.1021 86.5952 17.57 85.4193 17.57C84.6801 17.57 84.0473 17.7212 83.5209 18.0237C83.0057 18.3262 82.5969 18.7575 82.2945 19.3176V27.2828C82.5969 27.7981 83.0057 28.1903 83.5209 28.4591C84.0473 28.728 84.6913 28.8624 85.4529 28.8624C86.6401 28.8624 87.5081 28.3975 88.0569 27.4677C88.6169 26.5379 88.8969 25.2776 88.8969 23.6867V23.3339ZM104.689 32.6266C102.068 32.6266 99.9737 31.7864 98.4056 30.106C96.8376 28.4255 96.0537 26.2914 96.0537 23.7035V23.0314C96.0537 20.3315 96.7928 18.1078 98.2713 16.3601C99.7608 14.6124 101.754 13.7443 104.252 13.7555C106.705 13.7555 108.609 14.4948 109.964 15.9735C111.319 17.4523 111.997 19.4521 111.997 21.9727V24.6446H101.144L101.11 24.7454C101.2 25.9441 101.598 26.9299 102.303 27.703C103.02 28.476 103.989 28.8624 105.21 28.8624C106.296 28.8624 107.198 28.756 107.914 28.5432C108.631 28.3191 109.415 27.9718 110.266 27.5013L111.594 30.526C110.843 31.1198 109.869 31.6183 108.67 32.0216C107.483 32.4249 106.156 32.6266 104.689 32.6266ZM104.252 17.5364C103.345 17.5364 102.628 17.8837 102.102 18.5782C101.575 19.2728 101.25 20.1858 101.127 21.3173L101.178 21.4014H107.192V20.9644C107.192 19.9226 106.946 19.0936 106.453 18.4774C105.971 17.8501 105.238 17.5364 104.252 17.5364ZM113.962 17.0491V14.0915H121.085L121.321 16.2089C121.858 15.4246 122.502 14.8197 123.253 14.394C124.003 13.9683 124.877 13.7555 125.874 13.7555C128.125 13.7555 129.872 14.6348 131.115 16.3937C132.358 18.1526 132.98 20.4659 132.98 23.3339V23.6867C132.98 26.3755 132.358 28.5376 131.115 30.1732C129.872 31.8088 128.136 32.6266 125.907 32.6266C124.955 32.6266 124.109 32.4529 123.37 32.1057C122.631 31.7472 121.998 31.2263 121.472 30.5428V35.8026L123.841 36.3067V39.2642H114.214V36.3067L116.583 35.8026V17.5532L113.962 17.0491ZM128.074 23.3339C128.074 21.6198 127.789 20.2307 127.218 19.1664C126.646 18.1021 125.773 17.57 124.597 17.57C123.857 17.57 123.225 17.7212 122.698 18.0237C122.183 18.3262 121.774 18.7575 121.472 19.3176V27.2828C121.774 27.7981 122.183 28.1903 122.698 28.4591C123.225 28.728 123.869 28.8624 124.63 28.8624C125.818 28.8624 126.686 28.3975 127.234 27.4677C127.794 26.5379 128.074 25.2776 128.074 23.6867V23.3339ZM143.866 32.6266C141.245 32.6266 139.151 31.7864 137.583 30.106C136.015 28.4255 135.231 26.2914 135.231 23.7035V23.0314C135.231 20.3315 135.97 18.1078 137.449 16.3601C138.938 14.6124 140.932 13.7443 143.429 13.7555C145.882 13.7555 147.786 14.4948 149.141 15.9735C150.497 17.4523 151.174 19.4521 151.174 21.9727V24.6446H140.321L140.288 24.7454C140.377 25.9441 140.775 26.9299 141.481 27.703C142.197 28.476 143.166 28.8624 144.387 28.8624C145.473 28.8624 146.375 28.756 147.092 28.5432C147.809 28.3191 148.593 27.9718 149.444 27.5013L150.771 30.526C150.021 31.1198 149.046 31.6183 147.848 32.0216C146.661 32.4249 145.333 32.6266 143.866 32.6266ZM143.429 17.5364C142.522 17.5364 141.805 17.8837 141.279 18.5782C140.753 19.2728 140.428 20.1858 140.305 21.3173L140.355 21.4014H146.369V20.9644C146.369 19.9226 146.123 19.0936 145.63 18.4774C145.149 17.8501 144.415 17.5364 143.429 17.5364ZM153.879 29.333L156.231 28.8289V17.5532L153.627 17.0491V14.0915H160.8L161.019 16.7466C161.445 15.8055 161.993 15.0718 162.665 14.5453C163.338 14.0187 164.116 13.7555 165.001 13.7555C165.258 13.7555 165.527 13.7778 165.807 13.8226C166.098 13.8562 166.339 13.9011 166.53 13.9571L166.008 18.427L163.992 18.3766C163.276 18.3766 162.682 18.5166 162.211 18.7967C161.741 19.0768 161.383 19.4745 161.136 19.9898V28.8289L163.488 29.333V32.2737H153.879V29.333ZM167.839 29.333L170.209 28.8289V17.5532L167.587 17.0491V14.0915H175.114V28.8289L177.466 29.333V32.2737H167.839V29.333ZM175.114 9.73919H170.209V6.05908H175.114V9.73919ZM190.654 32.2737C190.52 31.9712 190.402 31.6631 190.301 31.3494C190.201 31.0246 190.122 30.6997 190.066 30.3748C189.483 31.0469 188.772 31.5903 187.932 32.0048C187.103 32.4193 186.152 32.6266 185.076 32.6266C183.296 32.6266 181.879 32.1448 180.826 31.1814C179.784 30.2068 179.264 28.8848 179.264 27.2156C179.264 25.5128 179.946 24.1964 181.313 23.2666C182.68 22.3368 184.685 21.8719 187.327 21.8719H189.831V20.0906C189.831 19.2168 189.579 18.539 189.075 18.0573C188.571 17.5756 187.826 17.3348 186.841 17.3348C186.281 17.3348 185.782 17.4019 185.346 17.5364C184.908 17.6596 184.555 17.8109 184.287 17.9901L183.967 19.9394H180.272L180.288 15.9064C181.185 15.3014 182.209 14.7917 183.363 14.3772C184.527 13.9627 185.794 13.7555 187.159 13.7555C189.411 13.7555 191.236 14.31 192.637 15.419C194.048 16.5169 194.753 18.0853 194.753 20.1242V27.6357C194.753 27.9158 194.753 28.1791 194.753 28.4255C194.765 28.672 194.787 28.9072 194.821 29.1313L196.316 29.333V32.2737H190.654ZM186.404 28.9969C187.143 28.9969 187.815 28.8401 188.42 28.5264C189.025 28.2015 189.495 27.7981 189.831 27.3164V24.5437H187.327C186.286 24.5437 185.496 24.7902 184.959 25.2832C184.421 25.7649 184.153 26.3474 184.153 27.0308C184.153 27.6469 184.349 28.1286 184.741 28.476C185.144 28.8233 185.698 28.9969 186.404 28.9969Z" fill="white"/>
</svg>
