<svg width="197" height="44" viewBox="0 0 197 44" fill="none" xmlns="http://www.w3.org/2000/svg">
<path fill-rule="evenodd" clip-rule="evenodd" d="M21.6394 43.8488C33.5905 43.8488 43.2786 34.2187 43.2786 22.3394C43.2786 10.46 33.5905 0.82991 21.6394 0.82991C9.68828 0.82991 0 10.46 0 22.3394C0 34.2187 9.68828 43.8488 21.6394 43.8488Z" fill="#B72E2E"/>
<path d="M24.985 34.4068C24.817 34.0287 24.67 33.6436 24.544 33.2515C24.418 32.8454 24.3201 32.4393 24.25 32.0332C23.5221 32.8734 22.633 33.5526 21.583 34.0707C20.547 34.5888 19.357 34.8479 18.013 34.8479C15.787 34.8479 14.0161 34.2457 12.7001 33.0414C11.3981 31.8231 10.7471 30.1707 10.7471 28.0842C10.7471 25.9556 11.6011 24.3103 13.3091 23.1479C15.0171 21.9856 17.523 21.4045 20.827 21.4045H23.956V19.1779C23.956 18.0857 23.6411 17.2385 23.011 16.6363C22.381 16.0342 21.45 15.7331 20.2181 15.7331C19.518 15.7331 18.895 15.8171 18.349 15.9852C17.803 16.1392 17.362 16.3282 17.026 16.5523L16.6271 18.9889H12.0071L12.0281 13.9477C13.1481 13.1914 14.4291 12.5543 15.871 12.0361C17.327 11.518 18.9091 11.2589 20.6171 11.2589C23.431 11.2589 25.713 11.9521 27.463 13.3384C29.227 14.7108 30.109 16.6713 30.109 19.22V28.6093C30.109 28.9594 30.109 29.2885 30.109 29.5966C30.123 29.9047 30.151 30.1987 30.193 30.4788L32.062 30.7309V34.4068H24.985ZM19.6721 30.3107C20.596 30.3107 21.436 30.1147 22.192 29.7227C22.9481 29.3165 23.536 28.8124 23.956 28.2102V24.7443H20.827C19.5251 24.7443 18.5381 25.0524 17.866 25.6686C17.194 26.2708 16.858 26.9989 16.858 27.8531C16.858 28.6233 17.103 29.2255 17.593 29.6596C18.097 30.0937 18.7901 30.3107 19.6721 30.3107Z" fill="#333333"/>
<path d="M67.813 32.2736C67.6785 31.9712 67.561 31.6631 67.4601 31.3494C67.3594 31.0246 67.281 30.6997 67.225 30.3748C66.6425 31.0469 65.9314 31.5902 65.0914 32.0048C64.2626 32.4192 63.3106 32.6266 62.2354 32.6266C60.4546 32.6266 59.0378 32.1448 57.985 31.1814C56.9434 30.2068 56.4226 28.8848 56.4226 27.2155C56.4226 25.5128 57.1058 24.1964 58.4722 23.2666C59.8386 22.3367 61.8434 21.8718 64.4866 21.8718H66.9898V20.0905C66.9898 19.2168 66.7378 18.539 66.2338 18.0573C65.7297 17.5756 64.9849 17.3347 63.9994 17.3347C63.4394 17.3347 62.941 17.4019 62.5042 17.5363C62.0674 17.6595 61.7146 17.8108 61.4458 17.99L61.1266 19.9393H57.4306L57.4474 15.9063C58.3434 15.3014 59.3682 14.7917 60.5218 14.3771C61.6866 13.9626 62.9522 13.7554 64.3186 13.7554C66.5697 13.7554 68.3954 14.31 69.7954 15.4189C71.2066 16.5168 71.9121 18.0853 71.9121 20.1241V27.6357C71.9121 27.9158 71.9121 28.179 71.9121 28.4255C71.9234 28.6719 71.9458 28.9072 71.9794 29.1312L73.4745 29.3329V32.2736H67.813ZM63.5626 28.9968C64.3018 28.9968 64.9737 28.84 65.5786 28.5263C66.1834 28.2014 66.6537 27.7981 66.9898 27.3164V24.5437H64.4866C63.445 24.5437 62.6554 24.7901 62.1178 25.2831C61.5802 25.7648 61.3114 26.3474 61.3114 27.0307C61.3114 27.6469 61.5074 28.1286 61.8994 28.4759C62.3026 28.8232 62.857 28.9968 63.5626 28.9968ZM74.7849 17.049V14.0914H81.9081L82.1433 16.2088C82.6809 15.4245 83.3249 14.8197 84.0753 14.3939C84.8257 13.9682 85.6993 13.7554 86.6961 13.7554C88.9473 13.7554 90.6944 14.6348 91.9377 16.3936C93.1808 18.1525 93.8024 20.4659 93.8024 23.3338V23.6866C93.8024 26.3754 93.1808 28.5375 91.9377 30.1732C90.6944 31.8088 88.9585 32.6266 86.7297 32.6266C85.7777 32.6266 84.932 32.4529 84.1929 32.1056C83.4537 31.7471 82.8209 31.2262 82.2945 30.5428V35.8025L84.6632 36.3066V39.2642H75.037V36.3066L77.4057 35.8025V17.5532L74.7849 17.049ZM88.8969 23.3338C88.8969 21.6198 88.6113 20.2306 88.0401 19.1664C87.4689 18.1021 86.5952 17.57 85.4193 17.57C84.6801 17.57 84.0473 17.7212 83.5209 18.0236C83.0057 18.3261 82.5969 18.7574 82.2945 19.3175V27.2828C82.5969 27.7981 83.0057 28.1902 83.5209 28.4591C84.0473 28.728 84.6913 28.8623 85.4529 28.8623C86.6401 28.8623 87.5081 28.3975 88.0569 27.4677C88.6169 26.5378 88.8969 25.2775 88.8969 23.6866V23.3338ZM104.689 32.6266C102.068 32.6266 99.9737 31.7863 98.4056 30.1059C96.8376 28.4255 96.0537 26.2914 96.0537 23.7035V23.0313C96.0537 20.3315 96.7928 18.1077 98.2713 16.36C99.7608 14.6123 101.754 13.7442 104.252 13.7554C106.705 13.7554 108.609 14.4948 109.964 15.9735C111.319 17.4523 111.997 19.452 111.997 21.9727V24.6445H101.144L101.11 24.7453C101.2 25.944 101.598 26.9299 102.303 27.7029C103.02 28.4759 103.989 28.8623 105.21 28.8623C106.296 28.8623 107.198 28.756 107.914 28.5431C108.631 28.319 109.415 27.9718 110.266 27.5012L111.594 30.526C110.843 31.1197 109.869 31.6182 108.67 32.0216C107.483 32.4248 106.156 32.6266 104.689 32.6266ZM104.252 17.5363C103.345 17.5363 102.628 17.8837 102.102 18.5782C101.575 19.2727 101.25 20.1858 101.127 21.3173L101.178 21.4013H107.192V20.9644C107.192 19.9225 106.946 19.0935 106.453 18.4773C105.971 17.85 105.238 17.5363 104.252 17.5363ZM113.962 17.049V14.0914H121.085L121.321 16.2088C121.858 15.4245 122.502 14.8197 123.253 14.3939C124.003 13.9682 124.877 13.7554 125.874 13.7554C128.125 13.7554 129.872 14.6348 131.115 16.3936C132.358 18.1525 132.98 20.4659 132.98 23.3338V23.6866C132.98 26.3754 132.358 28.5375 131.115 30.1732C129.872 31.8088 128.136 32.6266 125.907 32.6266C124.955 32.6266 124.109 32.4529 123.37 32.1056C122.631 31.7471 121.998 31.2262 121.472 30.5428V35.8025L123.841 36.3066V39.2642H114.214V36.3066L116.583 35.8025V17.5532L113.962 17.049ZM128.074 23.3338C128.074 21.6198 127.789 20.2306 127.218 19.1664C126.646 18.1021 125.773 17.57 124.597 17.57C123.857 17.57 123.225 17.7212 122.698 18.0236C122.183 18.3261 121.774 18.7574 121.472 19.3175V27.2828C121.774 27.7981 122.183 28.1902 122.698 28.4591C123.225 28.728 123.869 28.8623 124.63 28.8623C125.818 28.8623 126.686 28.3975 127.234 27.4677C127.794 26.5378 128.074 25.2775 128.074 23.6866V23.3338ZM143.866 32.6266C141.245 32.6266 139.151 31.7863 137.583 30.1059C136.015 28.4255 135.231 26.2914 135.231 23.7035V23.0313C135.231 20.3315 135.97 18.1077 137.449 16.36C138.938 14.6123 140.932 13.7442 143.429 13.7554C145.882 13.7554 147.786 14.4948 149.141 15.9735C150.497 17.4523 151.174 19.452 151.174 21.9727V24.6445H140.321L140.288 24.7453C140.377 25.944 140.775 26.9299 141.481 27.7029C142.197 28.4759 143.166 28.8623 144.387 28.8623C145.473 28.8623 146.375 28.756 147.092 28.5431C147.809 28.319 148.593 27.9718 149.444 27.5012L150.771 30.526C150.021 31.1197 149.046 31.6182 147.848 32.0216C146.661 32.4248 145.333 32.6266 143.866 32.6266ZM143.429 17.5363C142.522 17.5363 141.805 17.8837 141.279 18.5782C140.753 19.2727 140.428 20.1858 140.305 21.3173L140.355 21.4013H146.369V20.9644C146.369 19.9225 146.123 19.0935 145.63 18.4773C145.149 17.85 144.415 17.5363 143.429 17.5363ZM153.879 29.3329L156.231 28.8288V17.5532L153.627 17.049V14.0914H160.8L161.019 16.7466C161.445 15.8055 161.993 15.0717 162.665 14.5452C163.338 14.0187 164.116 13.7554 165.001 13.7554C165.258 13.7554 165.527 13.7777 165.807 13.8226C166.098 13.8562 166.339 13.901 166.53 13.957L166.008 18.427L163.992 18.3766C163.276 18.3766 162.682 18.5166 162.211 18.7966C161.741 19.0767 161.383 19.4744 161.136 19.9898V28.8288L163.488 29.3329V32.2736H153.879V29.3329ZM167.839 29.3329L170.209 28.8288V17.5532L167.587 17.049V14.0914H175.114V28.8288L177.466 29.3329V32.2736H167.839V29.3329ZM175.114 9.73913H170.209V6.05903H175.114V9.73913ZM190.654 32.2736C190.52 31.9712 190.402 31.6631 190.301 31.3494C190.201 31.0246 190.122 30.6997 190.066 30.3748C189.483 31.0469 188.772 31.5902 187.932 32.0048C187.103 32.4192 186.152 32.6266 185.076 32.6266C183.296 32.6266 181.879 32.1448 180.826 31.1814C179.784 30.2068 179.264 28.8848 179.264 27.2155C179.264 25.5128 179.946 24.1964 181.313 23.2666C182.68 22.3367 184.685 21.8718 187.327 21.8718H189.831V20.0905C189.831 19.2168 189.579 18.539 189.075 18.0573C188.571 17.5756 187.826 17.3347 186.841 17.3347C186.281 17.3347 185.782 17.4019 185.346 17.5363C184.908 17.6595 184.555 17.8108 184.287 17.99L183.967 19.9393H180.272L180.288 15.9063C181.185 15.3014 182.209 14.7917 183.363 14.3771C184.527 13.9626 185.794 13.7554 187.159 13.7554C189.411 13.7554 191.236 14.31 192.637 15.4189C194.048 16.5168 194.753 18.0853 194.753 20.1241V27.6357C194.753 27.9158 194.753 28.179 194.753 28.4255C194.765 28.6719 194.787 28.9072 194.821 29.1312L196.316 29.3329V32.2736H190.654ZM186.404 28.9968C187.143 28.9968 187.815 28.84 188.42 28.5263C189.025 28.2014 189.495 27.7981 189.831 27.3164V24.5437H187.327C186.286 24.5437 185.496 24.7901 184.959 25.2831C184.421 25.7648 184.153 26.3474 184.153 27.0307C184.153 27.6469 184.349 28.1286 184.741 28.4759C185.144 28.8232 185.698 28.9968 186.404 28.9968Z" fill="white"/>
</svg>
